<?xml version="1.0" ?><svg xmlns="http://www.w3.org/2000/svg" xmlns:xlink="http://www.w3.org/1999/xlink" version="1.1" viewBox="0 0 512 512" style="enable-background:new 0 0 512 512;" xml:space="preserve"><g id="_x34_3_Big_Sale_x2C__Promo_x2C__Offer_x2C__Sale_x2C__Commerce"><g><path style="fill:#F4D944;" d="M439.75,194.748c37.44,0,67.03,33.59,60.29,72.26c-5.29,30.36-33.08,51.89-63.82,50.14    c-0.17,0-0.33-0.02-0.47-0.02c-8.619-0.582-15.974,16.046-6.6,25.42l0.08,0.08c23.93,23.91,23.93,62.7,0,86.61    c-23.9,23.92-62.69,23.92-86.6,0l-0.08-0.09c-7.014-7.039-22.232-7.347-25.3,10.6c0,36.37-31.7,65.33-68.97,60.77    c-29.545-3.608-53.53-29.103-53.53-61.32c-2.953-16.821-18.032-17.305-25.28-10.07l-0.1,0.11c-23.9,23.92-62.7,23.92-86.6,0    c-23.93-23.91-23.93-62.7,0-86.61l0.08-0.08c9.173-9.109,3.303-25.3-10.33-25.3h-0.27c-37.44,0-67.03-33.58-60.29-72.25    c5.158-29.592,32.064-51.793,63.82-50.15c10.829,0,15.266-17.185,6.99-25.48c-20.735-20.701-23.626-52.816-8.05-76.7    c21.364-32.746,67.258-37.326,94.65-9.9c0.02,0.02,0.04,0.04,0.08,0.08c9.386,9.431,25.345,2.985,25.3-10.39v-0.21    c0-37.44,33.57-67.02,72.25-60.29c30.36,5.29,51.9,33.08,50.15,63.83c0,0.16-0.02,0.32-0.02,0.46    c-0.585,8.651,16.043,15.955,25.42,6.6l0.08-0.08c27.411-27.434,73.292-22.836,94.65,9.9c15.49,23.74,12.8,55.88-8.05,76.7    c-10.159,15.385,0.344,25.38,10.25,25.38H439.75z"/><g><path d="M146,305.998h15c5.523,0,10-4.478,10-10s-4.477-10-10-10h-15c-13.785,0-25,11.215-25,25v5c0,13.785,11.215,25,25,25     c2.757,0,5,2.243,5,5v5c0,2.757-2.243,5-5,5h-15c-5.523,0-10,4.478-10,10s4.477,10,10,10h15c13.785,0,25-11.215,25-25v-5     c0-13.785-11.215-25-25-25c-2.757,0-5-2.243-5-5v-5C141,308.241,143.243,305.998,146,305.998z"/><path d="M311,355.998h-20v-60c0-5.522-4.478-10-10-10s-10,4.478-10,10v70c0,5.522,4.478,10,10,10h30c5.522,0,10-4.478,10-10     S316.522,355.998,311,355.998z"/><path d="M381,305.998c5.522,0,10-4.478,10-10s-4.478-10-10-10h-30c-5.522,0-10,4.478-10,10v70c0,5.522,4.478,10,10,10h30     c5.522,0,10-4.478,10-10s-4.478-10-10-10h-20v-15h20c5.522,0,10-4.478,10-10s-4.478-10-10-10h-20v-15H381z"/><path d="M221,285.998c-16.542,0-30,13.458-30,30v50c0,5.522,4.477,10,10,10s10-4.478,10-10v-20h20v20c0,5.522,4.477,10,10,10     s10-4.478,10-10v-50C251,299.456,237.542,285.998,221,285.998z M211,325.998v-10c0-5.514,4.486-10,10-10s10,4.486,10,10v10H211z"/><path d="M246,135.998c-5.523,0-10,4.478-10,10v70c0,5.522,4.477,10,10,10s10-4.478,10-10v-70     C256,140.475,251.523,135.998,246,135.998z"/><path d="M209.697,180.998c14.741-17.824,2.012-45-21.197-45H166c-5.523,0-10,4.478-10,10c0,18.852,0,59.018,0,70     c0,5.522,4.477,10,10,10h22.5C211.734,225.998,224.428,198.808,209.697,180.998z M196,163.498c0,4.136-3.364,7.5-7.5,7.5H176v-15     h12.5C192.636,155.998,196,159.362,196,163.498z M188.5,205.998H176v-15h12.5c4.136,0,7.5,3.364,7.5,7.5     S192.636,205.998,188.5,205.998z"/><path d="M356,215.998v-30c0-5.522-4.478-10-10-10h-20c-5.522,0-10,4.478-10,10s4.478,10,10,10h10v10h-15     c-13.785,0-25-11.215-25-25s11.215-25,25-25h25c5.522,0,10-4.478,10-10s-4.478-10-10-10h-25c-24.813,0-45,20.187-45,45     s20.187,45,45,45h25C351.522,225.998,356,221.52,356,215.998z"/><path d="M494.308,210.169c-22.835-27.158-54.384-25.319-54.827-25.419c-4.807,0-6.085-5.416-3.236-8.246     c0.046-0.103,39.416-43.322,9.408-89.302v0.001c-12.593-19.336-34.469-32.384-59.722-32.384     c-31.915,0-49.609,20.392-50.457,20.957c-1.449,1.448-3.615,1.88-5.515,1.097c-5.148-2.12,0.894-63.942-61.239-74.764     c-21.076-3.672-42.417,2.009-58.557,15.58c-27.097,22.787-25.332,54.44-25.413,54.8c0.016,4.391-5.079,6.45-8.225,3.287     l-0.079-0.079c-27.837-27.86-72.921-27.857-100.751-0.003c-28.339,28.339-27.161,73.615-0.001,100.748     c2.626,2.627,2.181,8.308-3.422,8.308c-34.16,0-64.245,24.545-70.162,58.528c-3.671,21.068,2.009,42.409,15.582,58.552     c22.835,27.158,54.384,25.319,54.827,25.419c4.81,0,6.084,5.419,3.236,8.246l-0.057,0.058     c-27.862,27.837-27.856,72.924-0.006,100.75c27.257,27.278,58.913,27.881,100.854-0.1c2.599-2.601,8.224-1.878,8.203,3.352     c-0.075,35.716,26.808,66.551,62.316,70.894c20.485,2.505,40.933-3.867,56.145-17.333c25.685-22.735,23.95-53.226,24.04-53.635     c0-4.811,5.431-6.072,8.225-3.257c0.261,0.174,17.875,20.956,50.457,20.956c39.388,0,71.25-31.896,71.25-71.249     c0-31.979-20.418-49.649-20.957-50.457c-2.561-2.561-2.102-8.224,3.576-8.224c34.428-0.003,64.168-24.527,70.091-58.529     C513.561,247.652,507.881,226.311,494.308,210.169z M490.187,265.288c-4.417,25.358-27.366,43.355-53.4,41.876     c-20.717-1.164-29.036,28.122-14.727,42.431c0.153,0.229,15.12,13.218,15.12,36.336c0,28.328-22.949,51.249-51.25,51.249     c-22.892,0-35.744-14.709-36.289-15.072c-15.513-15.629-42.393-5.016-42.393,17.373v0.268c0,29.913-25.967,54.732-57.757,50.849     c-25.144-3.075-44.798-25.477-44.744-50.982c-5.676-29.556-30.447-29.453-42.362-17.536l-0.088,0.088     c-20.031,20.049-52.457,20.019-72.464-0.006c-20.083-20.066-19.985-52.491,0.024-72.483l0.034-0.035     c15.321-15.206,5.395-42.393-17.374-42.393h-0.268c-30.883,0-56.178-27.597-50.438-60.538     c9.56-54.899,62.909-29.947,72.219-53.743c4.482-11.586,4.832-21.637-4.199-30.671c-17.051-17.033-19.885-44.019-6.732-64.172     c9.237-14.187,25.12-23.306,42.968-23.306c22.97,0,35.711,14.692,36.297,15.083c15.676,15.75,42.46,4.833,42.384-17.447v-0.204     c0-30.879,27.569-56.174,60.538-50.438c25.359,4.417,43.361,27.374,41.875,53.4c-1.073,19.098,27.146,30.01,42.453,14.706     l0.085-0.085c20.024-20.04,52.444-20.031,72.461,0.003c20.418,20.41,19.527,52.958-0.021,72.485l-0.036,0.036     c-15.289,15.182-5.452,42.392,17.375,42.392c0.291,0.065,22.934-1.436,39.52,18.29     C488.908,234.823,492.881,249.827,490.187,265.288z"/></g></g></g><g id="Layer_1"/></svg>