<?xml version="1.0" ?><svg height="60px" version="1.1" viewBox="0 0 60 60" width="60px" xmlns="http://www.w3.org/2000/svg" xmlns:xlink="http://www.w3.org/1999/xlink"><title/><desc/><defs/><g fill="none" fill-rule="evenodd" id="Page-1" stroke="none" stroke-width="1"><g fill-rule="nonzero" id="012---Drink"><g id="Icons" transform="translate(1.000000, 0.000000)"><path d="M18.325,13.907 L13.37,2.221 C13.1189948,1.61785834 12.5875518,1.17663311 11.9485336,1.04084176 C11.3095155,0.905050399 10.6445759,1.09204433 10.17,1.541 L0.64,10.431 C-0.0783605696,11.1986614 -0.0797214952,12.3914519 0.636885465,13.1607505 C1.35349243,13.9300492 2.54338323,14.0131805 3.36,13.351 L10.8,6.411 L13.72,15 L18.325,13.907 Z" fill="#FFACAD" id="Shape"/><path d="M49.58,26.17 C55.7355709,23.852774 59.1906117,17.303068 57.6275972,10.9142047 C56.0645826,4.52534134 49.9760176,0.310447339 43.4459069,1.09673194 C36.9157962,1.88301654 32.0017734,7.42272198 32,14 L49.58,26.17 Z" fill="#F96A59" id="Shape"/><path d="M9.072,15.382 C8.27192832,17.7826427 7.91446218,20.3086238 8.017,22.837 C8.47687367,34.2595576 17.9890478,43.215916 29.4185877,42.9880494 C40.8481276,42.7601828 49.9957657,33.4318103 50,22 C50.0011176,19.7528087 49.6398121,17.5201437 48.93,15.388 C48.6582875,14.5621393 47.8884048,14.0029571 47.019,14 L10.981,14 C10.113524,14.0017189 9.34451115,14.5584374 9.072,15.382 Z" fill="#FFFFFF" id="Shape"/><rect fill="#000000" height="10.18" id="Rectangle-path" width="4" x="27" y="42"/><path d="M36.884,59 C37.1935845,58.9969003 37.4847182,58.8522603 37.6741998,58.6074158 C37.8636814,58.3625712 37.9306622,58.0444625 37.856,57.744 C37.1,54.478 33.419,52 29,52 C24.581,52 20.905,54.478 20.144,57.744 C20.0693378,58.0444625 20.1363186,58.3625712 20.3258002,58.6074158 C20.5152818,58.8522603 20.8064155,58.9969003 21.116,59 L36.884,59 Z" fill="#FFFFFF" id="Shape"/><path d="M48.55,29.66 C44.9491928,38.8335349 35.4537579,44.2691382 25.7199347,42.7289307 C15.9861114,41.1887232 8.63270855,33.0870855 8.04,23.25 C12.0699381,22.4418699 16.1915759,22.1895247 20.29,22.5 C23.1341644,22.697305 25.949669,23.1933701 28.69,23.98 C30.82,24.59 32.81,25.63 34.88,26.4 C39.2889184,28.0326709 43.8787736,29.1272523 48.55,29.66 Z" fill="#735EFF" id="Shape"/></g><g fill="#000000" id="Layer_10"><path d="M46,0.5 C38.7460761,0.511557478 32.7967582,6.25115922 32.525,13.5 L19.7,13.5 L14.832,2.029 C14.5173119,1.27609389 13.8534222,0.725364111 13.0553424,0.555173593 C12.2572626,0.384983075 11.4264586,0.616969414 10.832,1.176 L1.3,10.064 C0.808622279,10.5162692 0.520235999,11.1474747 0.5,11.815 C0.47626187,12.4732465 0.718461204,13.1133448 1.172,13.591 C1.62267929,14.076336 2.24796189,14.3623875 2.90985619,14.3860265 C3.5717505,14.4096656 4.21584624,14.1689491 4.7,13.717 L11.618,7.264 L14.26,13.5 L11.981,13.5 C10.8987378,13.5015009 9.93920294,14.196267 9.6,15.224 C8.78076681,17.6819621 8.41449654,20.2682165 8.519,22.857 C8.524,22.982 8.545,23.103 8.552,23.227 C8.54650203,23.2691548 8.54650203,23.3118452 8.552,23.354 C8.552,23.365 8.562,23.372 8.564,23.382 C9.28167516,33.7103934 17.2232975,42.0789577 27.5,43.336 L27.5,51.763 C24.047,52.504 21.329,54.746 20.658,57.631 C20.550344,58.0857265 20.6568267,58.5647141 20.947,58.931 C21.2297222,59.2881156 21.6605195,59.4959596 22.116,59.495 L37.884,59.495 C38.3394805,59.4959596 38.7702778,59.2881156 39.053,58.931 C39.3431733,58.5647141 39.449656,58.0857265 39.342,57.631 C38.671,54.746 35.953,52.504 32.5,51.763 L32.5,43.343 C41.6377205,42.2818702 49.0850784,35.5193315 51.02,26.526 C57.0180289,24.1151104 60.4651938,17.7906087 59.2408771,11.4431851 C58.0165604,5.09576141 52.4644171,0.507082639 46,0.5 Z M15.181,13.106 L12.261,6.216 C12.197197,6.06554704 12.0638954,5.95576929 11.904,5.922 C11.7445215,5.88916526 11.578977,5.9349225 11.459,6.045 L4.018,12.986 C3.72735378,13.2578184 3.34021889,13.4023571 2.94255009,13.3875243 C2.54488128,13.3726915 2.1695895,13.1997149 1.9,12.907 C1.62912543,12.6220982 1.4848722,12.2398272 1.5,11.847 C1.51205384,11.4466373 1.68511408,11.068068 1.98,10.797 L11.516,1.9 C11.8706366,1.56671076 12.365614,1.42747503 12.842,1.527 C13.3195219,1.63453792 13.7166205,1.964338 13.91,2.414 L18.61,13.497 L15.176,13.497 C15.2306752,13.3727493 15.23248,13.2316082 15.181,13.106 Z M10.547,15.54 C10.7503599,14.9201111 11.3286068,14.500741 11.981,14.5 L48.019,14.5 C48.6732228,14.5020289 49.252447,14.9232462 49.456,15.545 C50.1479884,17.6267382 50.500494,19.8062631 50.5,22 C50.5000296,23.3768017 50.3633592,24.7502048 50.092,26.1 C50.0871982,26.1193894 50.0838555,26.1391112 50.082,26.159 C49.8691098,27.1619215 49.5799356,28.1471196 49.217,29.106 C44.7206484,28.563407 40.3030548,27.4975195 36.054,25.93 C35.269,25.638 34.496,25.307 33.722,24.975 C32.4565462,24.4021881 31.1563119,23.9095486 29.829,23.5 C27.0560208,22.7036846 24.2070482,22.2009247 21.329,22 C17.3813476,21.7121024 13.4130783,21.9308815 9.521,22.651 C9.43972435,20.2386401 9.78710807,17.8309933 10.547,15.54 Z M38.369,57.858 C38.4066353,58.0172991 38.3698436,58.1850691 38.269,58.314 C38.1758879,58.4321915 38.0334606,58.5008222 37.883,58.5 L22.116,58.5 C21.9655394,58.5008222 21.8231121,58.4321915 21.73,58.314 C21.6291564,58.1850691 21.5923647,58.0172991 21.63,57.858 C22.353,54.758 25.873,52.5 29.999,52.5 C34.125,52.5 37.646,54.753 38.369,57.858 Z M31.5,43.5 L31.5,51.6 C30.5042681,51.469338 29.4957319,51.469338 28.5,51.6 L28.5,43.5 L31.5,43.5 Z M44.159,36.825 C38.4457392,42.286037 30.1002407,43.9726694 22.7146393,41.1589238 C15.3290378,38.3451782 10.221324,31.533179 9.59,23.655 C13.4336665,22.933297 17.3547011,22.7131275 21.255,23 C24.0651949,23.1950033 26.8471289,23.6846907 29.555,24.461 C30.8413067,24.8619148 32.1014099,25.3425108 33.328,25.9 C34.117,26.237 34.905,26.575 35.708,26.873 C39.9563937,28.4385839 44.3701764,29.5122521 48.863,30.073 C47.7683904,32.6189789 46.1680361,34.916086 44.159,36.825 Z M51.215,25.361 C51.3963079,24.2496649 51.4915907,23.1259962 51.5,22 C51.5005717,19.6988746 51.1308455,17.4126499 50.405,15.229 C50.0653727,14.1987038 49.1038286,13.501927 48.019,13.5 L33.525,13.5 C33.7734337,7.35842552 38.4523708,2.31001581 44.5574047,1.59642076 C50.6624386,0.882825712 56.3795212,4.71608276 58.0376391,10.6348074 C59.6957569,16.5535321 56.8022174,22.7990362 51.215,25.361 Z" id="Shape"/></g></g></g></svg>