<?xml version="1.0" ?><svg viewBox="0 0 64 64" xmlns="http://www.w3.org/2000/svg"><defs><style>.cls-1{fill:#d1e7ff;}.cls-2{fill:#2e58ff;}.cls-3{fill:#8bc4ff;}</style></defs><title/><g id="Discount"><path class="cls-1" d="M57,44l-1.36.18a4.63,4.63,0,0,0-3.94,5.43L52,50.93a4.62,4.62,0,0,1-6.74,4.91l-1.44-.78a4.61,4.61,0,0,0-6.26,1.84L36,59.59a4.61,4.61,0,0,1-8.09,0L26.48,56.9a4.61,4.61,0,0,0-6.26-1.84l-1.44.78A4.62,4.62,0,0,1,12,50.93l.25-1.35a4.63,4.63,0,0,0-3.94-5.43L7,44A4.63,4.63,0,0,1,4.42,36l1-.94a4.64,4.64,0,0,0,0-6.72l-1-.94a4.63,4.63,0,0,1,2.57-8l1.36-.17a4.63,4.63,0,0,0,3.94-5.43L12,12.51A4.62,4.62,0,0,1,18.78,7.6l1.59.87a4.61,4.61,0,0,0,6.17-1.7L28,4.26a4.61,4.61,0,0,1,7.93,0l1.49,2.51a4.61,4.61,0,0,0,6.17,1.7l1.59-.87A4.62,4.62,0,0,1,52,12.51l-.25,1.36a4.63,4.63,0,0,0,3.94,5.43l1.36.17a4.63,4.63,0,0,1,2.57,8l-1,.94a4.64,4.64,0,0,0,0,6.72l1,.94A4.63,4.63,0,0,1,57,44Z"/><path class="cls-2" d="M26.19,60.55l-1.47-2.69a2.61,2.61,0,0,0-3.54-1l-1.44.79a6.62,6.62,0,0,1-9.67-7c.25-1.35.59-2.29-.21-3.39s-1.78-1-3.13-1.23A6.63,6.63,0,0,1,3,34.57c1-.94,1.81-1.5,1.81-2.85S4,29.81,3,28.87A6.63,6.63,0,0,1,6.73,17.49c1.35-.18,2.34-.14,3.13-1.23s.46-2,.21-3.39a6.62,6.62,0,0,1,9.67-7l1.59.87a2.6,2.6,0,0,0,3.49-1l1.49-2.51a6.61,6.61,0,0,1,11.37,0l1.49,2.51a2.6,2.6,0,0,0,3.49,1l1.59-.87a6.62,6.62,0,0,1,9.67,7c-.25,1.35-.59,2.3.21,3.39s1.77,1,3.13,1.23A6.63,6.63,0,0,1,61,28.87c-1,.94-1.81,1.5-1.81,2.85S60,33.63,61,34.57A6.63,6.63,0,0,1,57.26,46c.1,0-1.26.17-1.36.18a2.61,2.61,0,0,0-2.23,3.08l.25,1.36a6.62,6.62,0,0,1-9.67,7l-1.44-.79a2.61,2.61,0,0,0-3.54,1L37.8,60.55A6.61,6.61,0,0,1,26.19,60.55Zm-3.77-8a6.61,6.61,0,0,1,5.81,3.44l1.47,2.69a2.61,2.61,0,0,0,4.59,0l1.47-2.69a6.62,6.62,0,0,1,9-2.64c1.45.79,2.68,1.73,4.22.61s1-2.63.79-4a6.63,6.63,0,0,1,5.65-7.78c1.52-.2,2.93-.2,3.5-2s-.75-2.78-1.68-3.67a6.63,6.63,0,0,1,0-9.62c1.11-1.05,2.26-1.9,1.68-3.66s-2.17-1.8-3.5-2a6.63,6.63,0,0,1-5.65-7.78c.28-1.48.72-2.87-.79-4s-2.82-.15-4.36.69A6.6,6.6,0,0,1,35.73,7.8L34.24,5.29a2.61,2.61,0,0,0-4.49,0L28.26,7.8a6.59,6.59,0,0,1-8.85,2.42c-1.54-.84-2.79-1.83-4.37-.69s-1,2.64-.78,4a6.63,6.63,0,0,1-5.65,7.78c-1.47.19-2.93.2-3.5,2S5.86,26,6.79,26.91a6.63,6.63,0,0,1,0,9.62c-1.11,1.06-2.26,1.9-1.68,3.67s2.17,1.79,3.5,2a6.63,6.63,0,0,1,5.65,7.78c-.28,1.48-.73,2.87.78,4C17.46,55.66,18.64,52.5,22.42,52.5ZM57,44h0Z"/><path class="cls-2" d="M22,44a2,2,0,0,1-1.41-3.41l20-20a2,2,0,0,1,2.82,2.82C21.7,45.13,23.18,44,22,44Z"/><circle class="cls-3" cx="40" cy="40" r="5"/><path class="cls-2" d="M40,47a7,7,0,1,1,7-7A7,7,0,0,1,40,47Zm0-10a3,3,0,1,0,3,3A3,3,0,0,0,40,37Z"/><circle class="cls-3" cx="24" cy="24" r="5"/><path class="cls-2" d="M24,31a7,7,0,1,1,7-7A7,7,0,0,1,24,31Zm0-10a3,3,0,1,0,3,3A3,3,0,0,0,24,21Z"/></g></svg>